<svg width="24" height="70" viewBox="0 0 24 70" fill="none" xmlns="http://www.w3.org/2000/svg">
<path d="M9.63721 1.13028C6.49974 3.85239 3.97445 7.66335 2.55876 11.9021C1.65961 14.5075 1.33438 16.7824 1.20047 20.9239C1.08568 24.3071 1.06655 24.4433 0.6648 24.6377C0.26305 24.8321 0.24392 24.9877 0.129134 27.807C-0.0430446 31.6374 -0.0430446 57.3225 0.129134 59.6558C0.24392 61.3085 0.282181 61.4835 0.703062 61.6779C1.35351 61.9696 1.33438 63.0195 0.6648 63.3306L0.186527 63.5639V66.5388C0.186527 68.5999 0.26305 69.5915 0.416098 69.747C0.760455 70.097 22.4358 70.0776 22.7228 69.7276C22.9141 69.5137 22.9906 67.6666 22.9715 64.6722C22.9524 63.6806 22.895 63.5251 22.4741 63.3306C21.8045 63.0195 21.7854 61.9696 22.4549 61.6585C22.7228 61.5418 22.9332 61.2307 22.9906 60.9002C23.048 60.6085 23.0671 56.5837 23.0289 51.9949C22.9906 47.3868 22.9524 39.4149 22.9524 34.2429V24.871L22.4932 24.6571C22.0532 24.4433 22.0532 24.3849 21.9384 20.9239C21.7662 15.6936 21.2306 13.0104 19.6044 9.3744C18.2844 6.45784 15.7017 2.97743 13.4251 1.07195C11.6842 -0.366887 11.3781 -0.366887 9.63721 1.13028ZM13.3486 4.16349C15.9122 6.94394 17.9018 10.5021 18.8201 13.9825C19.3749 16.0436 19.7575 19.9518 19.6618 22.5378L19.6044 24.1905L11.5694 24.3071C7.15019 24.3655 3.49618 24.4044 3.43879 24.3655C3.38139 24.346 3.40053 22.46 3.45792 20.1656C3.5727 16.8213 3.66836 15.713 3.99358 14.4686C5.14144 10.1327 6.90149 6.96338 9.77113 4.16349C11.7416 2.23857 11.5886 2.23857 13.3486 4.16349ZM13.3869 26.8154H20.7523V43.1481V59.4808H13.3869C9.33112 59.4808 5.1797 59.5391 4.16576 59.6169L2.29093 59.7335V43.1481V26.5626L4.16576 26.6793C5.1797 26.757 9.33112 26.8154 13.3869 26.8154ZM19.4514 62.1057C19.6618 62.1834 19.681 62.6695 19.4897 62.864C19.4514 62.9029 15.7974 62.9612 11.3781 63.0001C3.74488 63.0778 3.34313 63.0584 3.28574 62.7279C3.11356 61.8918 3.01791 61.8918 11.3016 61.9696C15.6635 62.0084 19.3175 62.0668 19.4514 62.1057ZM20.2358 65.5666C20.6375 65.6055 20.6949 65.7222 20.7523 66.5972L20.8288 67.5888L18.9731 67.7054C17.9592 67.7832 13.7886 67.8415 9.71374 67.8415H2.29093V66.6166V65.4111L11.0529 65.4694C15.8548 65.4889 20.0062 65.5472 20.2358 65.5666Z" fill="#FFBB00"/>
</svg>
